<mxfile host="65bd71144e">
    <diagram id="3Xsf9Z5Jb-ylDypEAf_c" name="Register">
        <mxGraphModel dx="2295" dy="711" grid="1" gridSize="10" guides="1" tooltips="1" connect="1" arrows="1" fold="1" page="1" pageScale="1" pageWidth="850" pageHeight="1100" background="#ffffff" math="0" shadow="0">
            <root>
                <mxCell id="AodUy6y1ME9elZLvLSFF-0"/>
                <mxCell id="AodUy6y1ME9elZLvLSFF-1" parent="AodUy6y1ME9elZLvLSFF-0"/>
                <mxCell id="AodUy6y1ME9elZLvLSFF-2" value="RegistrationPresenter" style="shape=umlLifeline;perimeter=lifelinePerimeter;whiteSpace=wrap;html=1;container=1;collapsible=0;recursiveResize=0;outlineConnect=0;rounded=0;" parent="AodUy6y1ME9elZLvLSFF-1" vertex="1">
                    <mxGeometry x="240" y="80" width="120" height="800" as="geometry"/>
                </mxCell>
                <mxCell id="AodUy6y1ME9elZLvLSFF-3" value="" style="html=1;points=[];perimeter=orthogonalPerimeter;rounded=0;" parent="AodUy6y1ME9elZLvLSFF-2" vertex="1">
                    <mxGeometry x="55" y="90" width="10" height="150" as="geometry"/>
                </mxCell>
                <mxCell id="AodUy6y1ME9elZLvLSFF-4" value="Registrationview" style="shape=umlLifeline;perimeter=lifelinePerimeter;whiteSpace=wrap;html=1;container=1;collapsible=0;recursiveResize=0;outlineConnect=0;rounded=0;" parent="AodUy6y1ME9elZLvLSFF-1" vertex="1">
                    <mxGeometry x="70" y="80" width="100" height="280" as="geometry"/>
                </mxCell>
                <mxCell id="AodUy6y1ME9elZLvLSFF-5" value="" style="html=1;points=[];perimeter=orthogonalPerimeter;rounded=0;" parent="AodUy6y1ME9elZLvLSFF-4" vertex="1">
                    <mxGeometry x="45" y="90" width="10" height="100" as="geometry"/>
                </mxCell>
                <mxCell id="AodUy6y1ME9elZLvLSFF-6" value="ClientConnection" style="shape=umlLifeline;perimeter=lifelinePerimeter;whiteSpace=wrap;html=1;container=1;collapsible=0;recursiveResize=0;outlineConnect=0;rounded=0;" parent="AodUy6y1ME9elZLvLSFF-1" vertex="1">
                    <mxGeometry x="1150" y="80" width="100" height="800" as="geometry"/>
                </mxCell>
                <mxCell id="AodUy6y1ME9elZLvLSFF-7" value="" style="html=1;points=[];perimeter=orthogonalPerimeter;fillColor=#0050ef;fontColor=#ffffff;strokeColor=#001DBC;rounded=0;" parent="AodUy6y1ME9elZLvLSFF-6" vertex="1">
                    <mxGeometry x="45" y="300" width="10" height="30" as="geometry"/>
                </mxCell>
                <mxCell id="AodUy6y1ME9elZLvLSFF-8" value="" style="html=1;points=[];perimeter=orthogonalPerimeter;fillColor=#0050ef;fontColor=#ffffff;strokeColor=#001DBC;rounded=0;" parent="AodUy6y1ME9elZLvLSFF-6" vertex="1">
                    <mxGeometry x="45" y="630" width="10" height="30" as="geometry"/>
                </mxCell>
                <mxCell id="AodUy6y1ME9elZLvLSFF-97" style="edgeStyle=none;html=1;endArrow=classic;endFill=1;exitX=0.03;exitY=1.018;exitDx=0;exitDy=0;exitPerimeter=0;rounded=0;entryX=1.288;entryY=0.031;entryDx=0;entryDy=0;entryPerimeter=0;" parent="AodUy6y1ME9elZLvLSFF-6" target="AodUy6y1ME9elZLvLSFF-90" edge="1">
                    <mxGeometry relative="1" as="geometry">
                        <mxPoint x="45.00000000000023" y="660.06" as="sourcePoint"/>
                        <mxPoint x="-150.29999999999995" y="660.52" as="targetPoint"/>
                        <Array as="points">
                            <mxPoint x="-25.25" y="660"/>
                        </Array>
                    </mxGeometry>
                </mxCell>
                <mxCell id="AodUy6y1ME9elZLvLSFF-98" value="post(RegistrationSuccessfulResponse)" style="edgeLabel;html=1;align=center;verticalAlign=middle;resizable=0;points=[];rounded=0;" parent="AodUy6y1ME9elZLvLSFF-97" vertex="1" connectable="0">
                    <mxGeometry x="-0.3866" y="-2" relative="1" as="geometry">
                        <mxPoint x="-43" y="2" as="offset"/>
                    </mxGeometry>
                </mxCell>
                <mxCell id="AodUy6y1ME9elZLvLSFF-17" value="serverHandler" style="shape=umlLifeline;perimeter=lifelinePerimeter;whiteSpace=wrap;html=1;container=1;collapsible=0;recursiveResize=0;outlineConnect=0;rounded=0;" parent="AodUy6y1ME9elZLvLSFF-1" vertex="1">
                    <mxGeometry x="1585.04" y="80" width="100" height="400" as="geometry"/>
                </mxCell>
                <mxCell id="AodUy6y1ME9elZLvLSFF-20" value="server" style="shape=umlLifeline;perimeter=lifelinePerimeter;whiteSpace=wrap;html=1;container=1;collapsible=0;recursiveResize=0;outlineConnect=0;rounded=0;" parent="AodUy6y1ME9elZLvLSFF-1" vertex="1">
                    <mxGeometry x="1415.04" y="80" width="100" height="800" as="geometry"/>
                </mxCell>
                <mxCell id="AodUy6y1ME9elZLvLSFF-21" value="" style="html=1;points=[];perimeter=orthogonalPerimeter;fillColor=#0050ef;fontColor=#ffffff;strokeColor=#001DBC;rounded=0;" parent="AodUy6y1ME9elZLvLSFF-20" vertex="1">
                    <mxGeometry x="45" y="330" width="10" height="80" as="geometry"/>
                </mxCell>
                <mxCell id="AodUy6y1ME9elZLvLSFF-22" value="" style="html=1;points=[];perimeter=orthogonalPerimeter;fillColor=#0050ef;fontColor=#ffffff;strokeColor=#001DBC;rounded=0;" parent="AodUy6y1ME9elZLvLSFF-20" vertex="1">
                    <mxGeometry x="45" y="600" width="10" height="30" as="geometry"/>
                </mxCell>
                <mxCell id="AodUy6y1ME9elZLvLSFF-23" value="&lt;span&gt;UserService&lt;/span&gt;" style="shape=umlLifeline;perimeter=lifelinePerimeter;whiteSpace=wrap;html=1;container=1;collapsible=0;recursiveResize=0;outlineConnect=0;rounded=0;" parent="AodUy6y1ME9elZLvLSFF-1" vertex="1">
                    <mxGeometry x="2025.04" y="80" width="120" height="600" as="geometry"/>
                </mxCell>
                <mxCell id="AodUy6y1ME9elZLvLSFF-24" value="" style="html=1;points=[];perimeter=orthogonalPerimeter;fillColor=#0050ef;fontColor=#ffffff;strokeColor=#001DBC;rounded=0;" parent="AodUy6y1ME9elZLvLSFF-23" vertex="1">
                    <mxGeometry x="55" y="440" width="10" height="130" as="geometry"/>
                </mxCell>
                <mxCell id="AodUy6y1ME9elZLvLSFF-25" value="serverEventBus" style="shape=umlLifeline;perimeter=lifelinePerimeter;whiteSpace=wrap;html=1;container=1;collapsible=0;recursiveResize=0;outlineConnect=0;rounded=0;" parent="AodUy6y1ME9elZLvLSFF-1" vertex="1">
                    <mxGeometry x="1805.04" y="80" width="100" height="630" as="geometry"/>
                </mxCell>
                <mxCell id="AodUy6y1ME9elZLvLSFF-26" value="" style="html=1;points=[];perimeter=orthogonalPerimeter;fillColor=#0050ef;fontColor=#ffffff;strokeColor=#001DBC;rounded=0;" parent="AodUy6y1ME9elZLvLSFF-25" vertex="1">
                    <mxGeometry x="45" y="410" width="10" height="30" as="geometry"/>
                </mxCell>
                <mxCell id="AodUy6y1ME9elZLvLSFF-27" value="" style="html=1;points=[];perimeter=orthogonalPerimeter;fillColor=#0050ef;fontColor=#ffffff;strokeColor=#001DBC;rounded=0;" parent="AodUy6y1ME9elZLvLSFF-25" vertex="1">
                    <mxGeometry x="45" y="570" width="10" height="30" as="geometry"/>
                </mxCell>
                <mxCell id="AodUy6y1ME9elZLvLSFF-28" value="" style="edgeStyle=none;html=1;dashed=1;endArrow=none;endFill=0;rounded=0;" parent="AodUy6y1ME9elZLvLSFF-1" edge="1">
                    <mxGeometry relative="1" as="geometry">
                        <mxPoint x="24.76000000000022" y="160" as="sourcePoint"/>
                        <mxPoint x="25" y="360" as="targetPoint"/>
                    </mxGeometry>
                </mxCell>
                <mxCell id="AodUy6y1ME9elZLvLSFF-29" style="edgeStyle=none;html=1;endArrow=classic;endFill=1;entryX=-0.052;entryY=0.015;entryDx=0;entryDy=0;entryPerimeter=0;rounded=0;" parent="AodUy6y1ME9elZLvLSFF-1" target="AodUy6y1ME9elZLvLSFF-5" edge="1">
                    <mxGeometry relative="1" as="geometry">
                        <mxPoint x="25" y="172" as="sourcePoint"/>
                    </mxGeometry>
                </mxCell>
                <mxCell id="AodUy6y1ME9elZLvLSFF-30" value="User" style="shape=umlActor;verticalLabelPosition=bottom;verticalAlign=top;html=1;rounded=0;" parent="AodUy6y1ME9elZLvLSFF-1" vertex="1">
                    <mxGeometry x="10" y="80" width="30" height="60" as="geometry"/>
                </mxCell>
                <mxCell id="AodUy6y1ME9elZLvLSFF-31" value="userStore" style="shape=umlLifeline;perimeter=lifelinePerimeter;whiteSpace=wrap;html=1;container=1;collapsible=0;recursiveResize=0;outlineConnect=0;rounded=0;" parent="AodUy6y1ME9elZLvLSFF-1" vertex="1">
                    <mxGeometry x="2415.04" y="80" width="100" height="600" as="geometry"/>
                </mxCell>
                <mxCell id="AodUy6y1ME9elZLvLSFF-32" value="" style="html=1;points=[];perimeter=orthogonalPerimeter;fillColor=#0050ef;fontColor=#ffffff;strokeColor=#001DBC;rounded=0;" parent="AodUy6y1ME9elZLvLSFF-31" vertex="1">
                    <mxGeometry x="45" y="470" width="10" height="38.64" as="geometry"/>
                </mxCell>
                <mxCell id="AodUy6y1ME9elZLvLSFF-38" style="edgeStyle=none;html=1;endArrow=classic;endFill=1;entryX=-0.148;entryY=0.166;entryDx=0;entryDy=0;entryPerimeter=0;rounded=0;" parent="AodUy6y1ME9elZLvLSFF-1" source="AodUy6y1ME9elZLvLSFF-5" target="AodUy6y1ME9elZLvLSFF-3" edge="1">
                    <mxGeometry relative="1" as="geometry">
                        <mxPoint x="120" y="190" as="sourcePoint"/>
                        <mxPoint x="280" y="190" as="targetPoint"/>
                    </mxGeometry>
                </mxCell>
                <mxCell id="AodUy6y1ME9elZLvLSFF-39" value="onRegisterButtonPressed" style="edgeLabel;html=1;align=center;verticalAlign=middle;resizable=0;points=[];rounded=0;" parent="AodUy6y1ME9elZLvLSFF-38" vertex="1" connectable="0">
                    <mxGeometry x="-0.3866" y="-2" relative="1" as="geometry">
                        <mxPoint x="30" as="offset"/>
                    </mxGeometry>
                </mxCell>
                <mxCell id="AodUy6y1ME9elZLvLSFF-40" style="edgeStyle=none;html=1;endArrow=classic;endFill=1;exitX=-0.351;exitY=0.472;exitDx=0;exitDy=0;exitPerimeter=0;entryX=1.067;entryY=0.703;entryDx=0;entryDy=0;entryPerimeter=0;rounded=0;" parent="AodUy6y1ME9elZLvLSFF-1" source="AodUy6y1ME9elZLvLSFF-3" target="AodUy6y1ME9elZLvLSFF-5" edge="1">
                    <mxGeometry relative="1" as="geometry">
                        <mxPoint x="280" y="280" as="sourcePoint"/>
                        <mxPoint x="259.4799999999998" y="280.00000000000006" as="targetPoint"/>
                    </mxGeometry>
                </mxCell>
                <mxCell id="AodUy6y1ME9elZLvLSFF-41" value="getUsername()" style="edgeLabel;html=1;align=center;verticalAlign=middle;resizable=0;points=[];rounded=0;" parent="AodUy6y1ME9elZLvLSFF-40" vertex="1" connectable="0">
                    <mxGeometry x="0.1051" relative="1" as="geometry">
                        <mxPoint as="offset"/>
                    </mxGeometry>
                </mxCell>
                <mxCell id="AodUy6y1ME9elZLvLSFF-42" style="edgeStyle=none;html=1;endArrow=classic;endFill=1;exitX=-0.351;exitY=0.606;exitDx=0;exitDy=0;exitPerimeter=0;entryX=1.09;entryY=0.914;entryDx=0;entryDy=0;entryPerimeter=0;rounded=0;" parent="AodUy6y1ME9elZLvLSFF-1" source="AodUy6y1ME9elZLvLSFF-3" target="AodUy6y1ME9elZLvLSFF-5" edge="1">
                    <mxGeometry relative="1" as="geometry">
                        <mxPoint x="288.57" y="260.48" as="sourcePoint"/>
                        <mxPoint x="129.99999999999983" y="260" as="targetPoint"/>
                        <Array as="points"/>
                    </mxGeometry>
                </mxCell>
                <mxCell id="AodUy6y1ME9elZLvLSFF-43" value="getPassword()" style="edgeLabel;html=1;align=center;verticalAlign=middle;resizable=0;points=[];rounded=0;" parent="AodUy6y1ME9elZLvLSFF-42" vertex="1" connectable="0">
                    <mxGeometry x="0.1051" relative="1" as="geometry">
                        <mxPoint as="offset"/>
                    </mxGeometry>
                </mxCell>
                <mxCell id="AodUy6y1ME9elZLvLSFF-46" style="edgeStyle=none;html=1;endArrow=classic;endFill=1;rounded=0;exitX=1.1;exitY=1;exitDx=0;exitDy=0;exitPerimeter=0;entryX=-0.243;entryY=0.009;entryDx=0;entryDy=0;entryPerimeter=0;" parent="AodUy6y1ME9elZLvLSFF-1" source="AodUy6y1ME9elZLvLSFF-7" target="AodUy6y1ME9elZLvLSFF-21" edge="1">
                    <mxGeometry relative="1" as="geometry">
                        <mxPoint x="1130" y="395" as="sourcePoint"/>
                        <mxPoint x="1380" y="410" as="targetPoint"/>
                    </mxGeometry>
                </mxCell>
                <mxCell id="AodUy6y1ME9elZLvLSFF-47" value="send(registerRequest)" style="edgeLabel;html=1;align=center;verticalAlign=middle;resizable=0;points=[];rounded=0;" parent="AodUy6y1ME9elZLvLSFF-46" vertex="1" connectable="0">
                    <mxGeometry x="-0.3866" y="-2" relative="1" as="geometry">
                        <mxPoint x="26" y="-2" as="offset"/>
                    </mxGeometry>
                </mxCell>
                <mxCell id="AodUy6y1ME9elZLvLSFF-48" style="edgeStyle=none;html=1;endArrow=classic;endFill=1;exitX=0.957;exitY=0.468;exitDx=0;exitDy=0;exitPerimeter=0;rounded=0;" parent="AodUy6y1ME9elZLvLSFF-1" source="AodUy6y1ME9elZLvLSFF-21" target="AodUy6y1ME9elZLvLSFF-17" edge="1">
                    <mxGeometry relative="1" as="geometry">
                        <mxPoint x="1475.04" y="380.93000000000006" as="sourcePoint"/>
                        <mxPoint x="1624.5200000000004" y="379.4900000000001" as="targetPoint"/>
                    </mxGeometry>
                </mxCell>
                <mxCell id="AodUy6y1ME9elZLvLSFF-49" value="process(ctx, registerRequest)" style="edgeLabel;html=1;align=center;verticalAlign=middle;resizable=0;points=[];rounded=0;" parent="AodUy6y1ME9elZLvLSFF-48" vertex="1" connectable="0">
                    <mxGeometry x="-0.3866" y="-2" relative="1" as="geometry">
                        <mxPoint x="26" y="-2" as="offset"/>
                    </mxGeometry>
                </mxCell>
                <mxCell id="AodUy6y1ME9elZLvLSFF-50" style="edgeStyle=none;html=1;endArrow=classic;endFill=1;exitX=0.995;exitY=0.993;exitDx=0;exitDy=0;exitPerimeter=0;entryX=-0.1;entryY=-0.017;entryDx=0;entryDy=0;entryPerimeter=0;rounded=0;" parent="AodUy6y1ME9elZLvLSFF-1" source="AodUy6y1ME9elZLvLSFF-21" target="AodUy6y1ME9elZLvLSFF-26" edge="1">
                    <mxGeometry relative="1" as="geometry">
                        <mxPoint x="1470.04" y="432.12000000000006" as="sourcePoint"/>
                        <mxPoint x="1755.04" y="429" as="targetPoint"/>
                    </mxGeometry>
                </mxCell>
                <mxCell id="AodUy6y1ME9elZLvLSFF-51" value="post(registerRequest)" style="edgeLabel;html=1;align=center;verticalAlign=middle;resizable=0;points=[];rounded=0;" parent="AodUy6y1ME9elZLvLSFF-50" vertex="1" connectable="0">
                    <mxGeometry x="-0.3866" y="-2" relative="1" as="geometry">
                        <mxPoint x="6" y="-1" as="offset"/>
                    </mxGeometry>
                </mxCell>
                <mxCell id="AodUy6y1ME9elZLvLSFF-52" style="edgeStyle=none;html=1;endArrow=classic;endFill=1;exitX=0.995;exitY=0.998;exitDx=0;exitDy=0;exitPerimeter=0;entryX=-0.1;entryY=-0.017;entryDx=0;entryDy=0;entryPerimeter=0;rounded=0;" parent="AodUy6y1ME9elZLvLSFF-1" source="AodUy6y1ME9elZLvLSFF-26" target="AodUy6y1ME9elZLvLSFF-24" edge="1">
                    <mxGeometry relative="1" as="geometry">
                        <mxPoint x="1655.0400000000002" y="510" as="sourcePoint"/>
                        <mxPoint x="1940.09" y="509.55999999999995" as="targetPoint"/>
                    </mxGeometry>
                </mxCell>
                <mxCell id="AodUy6y1ME9elZLvLSFF-53" value="onRegisterUserRequest(registerRequest)" style="edgeLabel;html=1;align=center;verticalAlign=middle;resizable=0;points=[];rounded=0;" parent="AodUy6y1ME9elZLvLSFF-52" vertex="1" connectable="0">
                    <mxGeometry x="-0.3866" y="-2" relative="1" as="geometry">
                        <mxPoint x="38" y="-4" as="offset"/>
                    </mxGeometry>
                </mxCell>
                <mxCell id="AodUy6y1ME9elZLvLSFF-54" value="userManagement" style="shape=umlLifeline;perimeter=lifelinePerimeter;whiteSpace=wrap;html=1;container=1;collapsible=0;recursiveResize=0;outlineConnect=0;rounded=0;" parent="AodUy6y1ME9elZLvLSFF-1" vertex="1">
                    <mxGeometry x="2175.04" y="80" width="100" height="600" as="geometry"/>
                </mxCell>
                <mxCell id="AodUy6y1ME9elZLvLSFF-55" value="" style="html=1;points=[];perimeter=orthogonalPerimeter;fillColor=#0050ef;fontColor=#ffffff;strokeColor=#001DBC;rounded=0;" parent="AodUy6y1ME9elZLvLSFF-54" vertex="1">
                    <mxGeometry x="45" y="460" width="10" height="80" as="geometry"/>
                </mxCell>
                <mxCell id="AodUy6y1ME9elZLvLSFF-56" style="edgeStyle=none;html=1;endArrow=classic;endFill=1;entryX=-0.1;entryY=-0.017;entryDx=0;entryDy=0;entryPerimeter=0;exitX=1.233;exitY=0.15;exitDx=0;exitDy=0;exitPerimeter=0;rounded=0;" parent="AodUy6y1ME9elZLvLSFF-1" source="AodUy6y1ME9elZLvLSFF-24" target="AodUy6y1ME9elZLvLSFF-55" edge="1">
                    <mxGeometry relative="1" as="geometry">
                        <mxPoint x="2035.04" y="479" as="sourcePoint"/>
                        <mxPoint x="2135.14" y="530.9200000000001" as="targetPoint"/>
                    </mxGeometry>
                </mxCell>
                <mxCell id="AodUy6y1ME9elZLvLSFF-57" value="createUser(user)" style="edgeLabel;html=1;align=center;verticalAlign=middle;resizable=0;points=[];rounded=0;" parent="AodUy6y1ME9elZLvLSFF-56" vertex="1" connectable="0">
                    <mxGeometry x="-0.3866" y="-2" relative="1" as="geometry">
                        <mxPoint x="13" y="-1" as="offset"/>
                    </mxGeometry>
                </mxCell>
                <mxCell id="AodUy6y1ME9elZLvLSFF-58" style="edgeStyle=none;html=1;endArrow=classic;endFill=1;entryX=-0.333;entryY=0;entryDx=0;entryDy=0;entryPerimeter=0;exitX=0.995;exitY=0.142;exitDx=0;exitDy=0;exitPerimeter=0;rounded=0;" parent="AodUy6y1ME9elZLvLSFF-1" source="AodUy6y1ME9elZLvLSFF-55" target="AodUy6y1ME9elZLvLSFF-32" edge="1">
                    <mxGeometry relative="1" as="geometry">
                        <mxPoint x="2210.04" y="490.86" as="sourcePoint"/>
                        <mxPoint x="2302.81" y="542.28" as="targetPoint"/>
                    </mxGeometry>
                </mxCell>
                <mxCell id="AodUy6y1ME9elZLvLSFF-59" value="createUser(username, password, email)" style="edgeLabel;html=1;align=center;verticalAlign=middle;resizable=0;points=[];rounded=0;" parent="AodUy6y1ME9elZLvLSFF-58" vertex="1" connectable="0">
                    <mxGeometry x="-0.3866" y="-2" relative="1" as="geometry">
                        <mxPoint x="45" y="-3" as="offset"/>
                    </mxGeometry>
                </mxCell>
                <mxCell id="AodUy6y1ME9elZLvLSFF-60" style="edgeStyle=none;html=1;endArrow=classic;endFill=1;dashed=1;dashPattern=1 1;entryX=1.047;entryY=0.625;entryDx=0;entryDy=0;entryPerimeter=0;exitX=-0.028;exitY=1.001;exitDx=0;exitDy=0;exitPerimeter=0;rounded=0;" parent="AodUy6y1ME9elZLvLSFF-1" source="AodUy6y1ME9elZLvLSFF-32" target="AodUy6y1ME9elZLvLSFF-55" edge="1">
                    <mxGeometry relative="1" as="geometry">
                        <mxPoint x="2375.04" y="528" as="sourcePoint"/>
                        <mxPoint x="2219.09" y="524.67" as="targetPoint"/>
                    </mxGeometry>
                </mxCell>
                <mxCell id="AodUy6y1ME9elZLvLSFF-61" value="user" style="edgeLabel;html=1;align=center;verticalAlign=middle;resizable=0;points=[];rounded=0;" parent="AodUy6y1ME9elZLvLSFF-60" vertex="1" connectable="0">
                    <mxGeometry x="-0.3866" y="-2" relative="1" as="geometry">
                        <mxPoint x="-31" y="-2" as="offset"/>
                    </mxGeometry>
                </mxCell>
                <mxCell id="AodUy6y1ME9elZLvLSFF-62" style="edgeStyle=none;html=1;endArrow=classic;endFill=1;dashed=1;dashPattern=1 1;entryX=1.156;entryY=0.766;entryDx=0;entryDy=0;entryPerimeter=0;exitX=-0.018;exitY=1;exitDx=0;exitDy=0;exitPerimeter=0;rounded=0;" parent="AodUy6y1ME9elZLvLSFF-1" source="AodUy6y1ME9elZLvLSFF-55" target="AodUy6y1ME9elZLvLSFF-24" edge="1">
                    <mxGeometry relative="1" as="geometry">
                        <mxPoint x="2194.29" y="559.63864" as="sourcePoint"/>
                        <mxPoint x="2025.0400000000002" y="559.6" as="targetPoint"/>
                    </mxGeometry>
                </mxCell>
                <mxCell id="AodUy6y1ME9elZLvLSFF-63" value="user" style="edgeLabel;html=1;align=center;verticalAlign=middle;resizable=0;points=[];rounded=0;" parent="AodUy6y1ME9elZLvLSFF-62" vertex="1" connectable="0">
                    <mxGeometry x="-0.3866" y="-2" relative="1" as="geometry">
                        <mxPoint x="-31" y="-2" as="offset"/>
                    </mxGeometry>
                </mxCell>
                <mxCell id="AodUy6y1ME9elZLvLSFF-64" style="edgeStyle=none;html=1;endArrow=classic;endFill=1;entryX=1.042;entryY=-0.004;entryDx=0;entryDy=0;entryPerimeter=0;exitX=-0.112;exitY=1.002;exitDx=0;exitDy=0;exitPerimeter=0;rounded=0;" parent="AodUy6y1ME9elZLvLSFF-1" source="AodUy6y1ME9elZLvLSFF-24" target="AodUy6y1ME9elZLvLSFF-27" edge="1">
                    <mxGeometry relative="1" as="geometry">
                        <mxPoint x="1988.3000000000002" y="580.4200000000001" as="sourcePoint"/>
                        <mxPoint x="1830.04" y="580" as="targetPoint"/>
                    </mxGeometry>
                </mxCell>
                <mxCell id="AodUy6y1ME9elZLvLSFF-65" value="post(RegistrationSuccessfulResponse)" style="edgeLabel;html=1;align=center;verticalAlign=middle;resizable=0;points=[];rounded=0;" parent="AodUy6y1ME9elZLvLSFF-64" vertex="1" connectable="0">
                    <mxGeometry x="-0.3866" y="-2" relative="1" as="geometry">
                        <mxPoint x="-37" y="-2" as="offset"/>
                    </mxGeometry>
                </mxCell>
                <mxCell id="AodUy6y1ME9elZLvLSFF-66" style="edgeStyle=none;html=1;endArrow=classic;endFill=1;entryX=1.042;entryY=-0.004;entryDx=0;entryDy=0;entryPerimeter=0;exitX=-0.18;exitY=0.98;exitDx=0;exitDy=0;exitPerimeter=0;rounded=0;" parent="AodUy6y1ME9elZLvLSFF-1" source="AodUy6y1ME9elZLvLSFF-27" target="AodUy6y1ME9elZLvLSFF-22" edge="1">
                    <mxGeometry relative="1" as="geometry">
                        <mxPoint x="1658.9199999999998" y="620.26" as="sourcePoint"/>
                        <mxPoint x="1460.04" y="610" as="targetPoint"/>
                    </mxGeometry>
                </mxCell>
                <mxCell id="AodUy6y1ME9elZLvLSFF-67" value="onRegistrationSuccessfulResponse(RegistrationSuccessfulResponse)" style="edgeLabel;html=1;align=center;verticalAlign=middle;resizable=0;points=[];rounded=0;" parent="AodUy6y1ME9elZLvLSFF-66" vertex="1" connectable="0">
                    <mxGeometry x="-0.3866" y="-2" relative="1" as="geometry">
                        <mxPoint x="-52" y="-2" as="offset"/>
                    </mxGeometry>
                </mxCell>
                <mxCell id="AodUy6y1ME9elZLvLSFF-68" style="edgeStyle=none;html=1;endArrow=classic;endFill=1;entryX=0.995;entryY=0.014;entryDx=0;entryDy=0;entryPerimeter=0;exitX=-0.137;exitY=1;exitDx=0;exitDy=0;exitPerimeter=0;rounded=0;" parent="AodUy6y1ME9elZLvLSFF-1" source="AodUy6y1ME9elZLvLSFF-22" target="AodUy6y1ME9elZLvLSFF-8" edge="1">
                    <mxGeometry relative="1" as="geometry">
                        <mxPoint x="1145" y="640" as="sourcePoint"/>
                        <mxPoint x="985.5038095238094" y="640" as="targetPoint"/>
                        <Array as="points"/>
                    </mxGeometry>
                </mxCell>
                <mxCell id="AodUy6y1ME9elZLvLSFF-69" value="sendClient(RegistrationSuccessfulResponse)" style="edgeLabel;html=1;align=center;verticalAlign=middle;resizable=0;points=[];rounded=0;" parent="AodUy6y1ME9elZLvLSFF-68" vertex="1" connectable="0">
                    <mxGeometry x="-0.3866" y="-2" relative="1" as="geometry">
                        <mxPoint x="-51" y="2" as="offset"/>
                    </mxGeometry>
                </mxCell>
                <mxCell id="AodUy6y1ME9elZLvLSFF-70" style="edgeStyle=none;html=1;endArrow=classic;endFill=1;exitX=0.98;exitY=1.005;exitDx=0;exitDy=0;exitPerimeter=0;rounded=0;entryX=-0.274;entryY=-0.023;entryDx=0;entryDy=0;entryPerimeter=0;" parent="AodUy6y1ME9elZLvLSFF-1" source="AodUy6y1ME9elZLvLSFF-3" target="AodUy6y1ME9elZLvLSFF-81" edge="1">
                    <mxGeometry relative="1" as="geometry">
                        <mxPoint x="459.71000000000004" y="289.5200000000001" as="sourcePoint"/>
                        <mxPoint x="454.48" y="289.4899999999998" as="targetPoint"/>
                    </mxGeometry>
                </mxCell>
                <mxCell id="AodUy6y1ME9elZLvLSFF-71" value="createUser(user)" style="edgeLabel;html=1;align=center;verticalAlign=middle;resizable=0;points=[];rounded=0;" parent="AodUy6y1ME9elZLvLSFF-70" vertex="1" connectable="0">
                    <mxGeometry x="-0.3866" y="-2" relative="1" as="geometry">
                        <mxPoint x="-97" y="-2" as="offset"/>
                    </mxGeometry>
                </mxCell>
                <mxCell id="AodUy6y1ME9elZLvLSFF-80" value="UserService" style="shape=umlLifeline;perimeter=lifelinePerimeter;whiteSpace=wrap;html=1;container=1;collapsible=0;recursiveResize=0;outlineConnect=0;rounded=0;" parent="AodUy6y1ME9elZLvLSFF-1" vertex="1">
                    <mxGeometry x="760" y="80" width="100" height="800" as="geometry"/>
                </mxCell>
                <mxCell id="AodUy6y1ME9elZLvLSFF-81" value="" style="html=1;points=[];perimeter=orthogonalPerimeter;fillColor=#0050ef;fontColor=#ffffff;strokeColor=#001DBC;rounded=0;" parent="AodUy6y1ME9elZLvLSFF-80" vertex="1">
                    <mxGeometry x="45" y="240" width="10" height="30" as="geometry"/>
                </mxCell>
                <mxCell id="AodUy6y1ME9elZLvLSFF-88" value="ClientEventBus" style="shape=umlLifeline;perimeter=lifelinePerimeter;whiteSpace=wrap;html=1;container=1;collapsible=0;recursiveResize=0;outlineConnect=0;rounded=0;" parent="AodUy6y1ME9elZLvLSFF-1" vertex="1">
                    <mxGeometry x="920" y="80" width="100" height="820" as="geometry"/>
                </mxCell>
                <mxCell id="AodUy6y1ME9elZLvLSFF-89" value="" style="html=1;points=[];perimeter=orthogonalPerimeter;fillColor=#0050ef;fontColor=#ffffff;strokeColor=#001DBC;rounded=0;" parent="AodUy6y1ME9elZLvLSFF-88" vertex="1">
                    <mxGeometry x="45" y="270" width="10" height="30" as="geometry"/>
                </mxCell>
                <mxCell id="AodUy6y1ME9elZLvLSFF-90" value="" style="html=1;points=[];perimeter=orthogonalPerimeter;fillColor=#0050ef;fontColor=#ffffff;strokeColor=#001DBC;rounded=0;" parent="AodUy6y1ME9elZLvLSFF-88" vertex="1">
                    <mxGeometry x="45" y="660" width="10" height="30" as="geometry"/>
                </mxCell>
                <mxCell id="AodUy6y1ME9elZLvLSFF-91" style="edgeStyle=none;html=1;endArrow=classic;endFill=1;exitX=1.095;exitY=1.011;exitDx=0;exitDy=0;exitPerimeter=0;rounded=0;entryX=-0.017;entryY=0.078;entryDx=0;entryDy=0;entryPerimeter=0;" parent="AodUy6y1ME9elZLvLSFF-1" source="AodUy6y1ME9elZLvLSFF-81" target="AodUy6y1ME9elZLvLSFF-89" edge="1">
                    <mxGeometry relative="1" as="geometry">
                        <mxPoint x="812.7900000000001" y="350.00000000000006" as="sourcePoint"/>
                        <mxPoint x="1009.9999999999999" y="350.03000000000003" as="targetPoint"/>
                        <Array as="points"/>
                    </mxGeometry>
                </mxCell>
                <mxCell id="AodUy6y1ME9elZLvLSFF-92" value="post(registerRequest)" style="edgeLabel;html=1;align=center;verticalAlign=middle;resizable=0;points=[];rounded=0;" parent="AodUy6y1ME9elZLvLSFF-91" vertex="1" connectable="0">
                    <mxGeometry x="-0.3866" y="-2" relative="1" as="geometry">
                        <mxPoint x="18" y="-3" as="offset"/>
                    </mxGeometry>
                </mxCell>
                <mxCell id="AodUy6y1ME9elZLvLSFF-93" style="edgeStyle=none;html=1;endArrow=classic;endFill=1;entryX=-0.06;entryY=0.027;entryDx=0;entryDy=0;entryPerimeter=0;exitX=1.1;exitY=1.04;exitDx=0;exitDy=0;exitPerimeter=0;rounded=0;" parent="AodUy6y1ME9elZLvLSFF-1" source="AodUy6y1ME9elZLvLSFF-89" target="AodUy6y1ME9elZLvLSFF-7" edge="1">
                    <mxGeometry relative="1" as="geometry">
                        <mxPoint x="975" y="364.86000000000007" as="sourcePoint"/>
                        <mxPoint x="1169.29" y="364.41" as="targetPoint"/>
                    </mxGeometry>
                </mxCell>
                <mxCell id="AodUy6y1ME9elZLvLSFF-94" value="onRequestMessage(registerRequest)" style="edgeLabel;html=1;align=center;verticalAlign=middle;resizable=0;points=[];rounded=0;" parent="AodUy6y1ME9elZLvLSFF-93" vertex="1" connectable="0">
                    <mxGeometry x="-0.3866" y="-2" relative="1" as="geometry">
                        <mxPoint x="32" y="-2" as="offset"/>
                    </mxGeometry>
                </mxCell>
                <mxCell id="AodUy6y1ME9elZLvLSFF-18" style="edgeStyle=none;html=1;endArrow=open;endFill=0;rounded=0;entryX=1.071;entryY=0.125;entryDx=0;entryDy=0;entryPerimeter=0;" parent="AodUy6y1ME9elZLvLSFF-1" source="AodUy6y1ME9elZLvLSFF-17" target="AodUy6y1ME9elZLvLSFF-21" edge="1">
                    <mxGeometry relative="1" as="geometry">
                        <mxPoint x="1634.61" y="420" as="sourcePoint"/>
                        <mxPoint x="1470.04" y="420" as="targetPoint"/>
                    </mxGeometry>
                </mxCell>
                <mxCell id="AodUy6y1ME9elZLvLSFF-19" value="process(ctx, registerRequest)" style="edgeLabel;html=1;align=center;verticalAlign=middle;resizable=0;points=[];rounded=0;" parent="AodUy6y1ME9elZLvLSFF-18" vertex="1" connectable="0">
                    <mxGeometry x="-0.3866" y="-2" relative="1" as="geometry">
                        <mxPoint x="-29" y="2" as="offset"/>
                    </mxGeometry>
                </mxCell>
                <mxCell id="AodUy6y1ME9elZLvLSFF-99" value="ClientApp" style="shape=umlLifeline;perimeter=lifelinePerimeter;whiteSpace=wrap;html=1;container=1;collapsible=0;recursiveResize=0;outlineConnect=0;rounded=0;" parent="AodUy6y1ME9elZLvLSFF-1" vertex="1">
                    <mxGeometry x="530" y="80" width="120" height="800" as="geometry"/>
                </mxCell>
                <mxCell id="AodUy6y1ME9elZLvLSFF-102" value="" style="html=1;points=[];perimeter=orthogonalPerimeter;fillColor=#0050ef;fontColor=#ffffff;strokeColor=#001DBC;rounded=0;" parent="AodUy6y1ME9elZLvLSFF-99" vertex="1">
                    <mxGeometry x="55" y="690" width="10" height="30" as="geometry"/>
                </mxCell>
                <mxCell id="AodUy6y1ME9elZLvLSFF-101" value="SceneManager" style="shape=umlLifeline;perimeter=lifelinePerimeter;whiteSpace=wrap;html=1;container=1;collapsible=0;recursiveResize=0;outlineConnect=0;rounded=0;" parent="AodUy6y1ME9elZLvLSFF-1" vertex="1">
                    <mxGeometry x="390" y="80" width="120" height="800" as="geometry"/>
                </mxCell>
                <mxCell id="AodUy6y1ME9elZLvLSFF-107" value="" style="html=1;points=[];perimeter=orthogonalPerimeter;fillColor=#0050ef;fontColor=#ffffff;strokeColor=#001DBC;rounded=0;" parent="AodUy6y1ME9elZLvLSFF-101" vertex="1">
                    <mxGeometry x="55" y="720" width="10" height="30" as="geometry"/>
                </mxCell>
                <mxCell id="AodUy6y1ME9elZLvLSFF-103" style="edgeStyle=none;html=1;endArrow=classic;endFill=1;rounded=0;" parent="AodUy6y1ME9elZLvLSFF-1" target="AodUy6y1ME9elZLvLSFF-99" edge="1">
                    <mxGeometry relative="1" as="geometry">
                        <mxPoint x="970" y="769" as="sourcePoint"/>
                        <mxPoint x="662.25" y="769.05" as="targetPoint"/>
                        <Array as="points">
                            <mxPoint x="888" y="769"/>
                        </Array>
                    </mxGeometry>
                </mxCell>
                <mxCell id="AodUy6y1ME9elZLvLSFF-104" value="onRegistrationSuccessfulResponse(RegistrationSuccessfulResponse)" style="edgeLabel;html=1;align=center;verticalAlign=middle;resizable=0;points=[];rounded=0;" parent="AodUy6y1ME9elZLvLSFF-103" vertex="1" connectable="0">
                    <mxGeometry x="-0.3866" y="-2" relative="1" as="geometry">
                        <mxPoint x="-70" y="3" as="offset"/>
                    </mxGeometry>
                </mxCell>
                <mxCell id="AodUy6y1ME9elZLvLSFF-105" style="edgeStyle=none;html=1;endArrow=classic;endFill=1;rounded=0;exitX=-0.1;exitY=1.038;exitDx=0;exitDy=0;exitPerimeter=0;" parent="AodUy6y1ME9elZLvLSFF-1" source="AodUy6y1ME9elZLvLSFF-102" target="AodUy6y1ME9elZLvLSFF-101" edge="1">
                    <mxGeometry relative="1" as="geometry">
                        <mxPoint x="460" y="930.0000000000001" as="sourcePoint"/>
                        <mxPoint x="310" y="930" as="targetPoint"/>
                    </mxGeometry>
                </mxCell>
                <mxCell id="AodUy6y1ME9elZLvLSFF-106" value="showLoginScreen()" style="edgeLabel;html=1;align=center;verticalAlign=middle;resizable=0;points=[];rounded=0;" parent="AodUy6y1ME9elZLvLSFF-105" vertex="1" connectable="0">
                    <mxGeometry x="-0.3866" y="-2" relative="1" as="geometry">
                        <mxPoint x="-20" y="-2" as="offset"/>
                    </mxGeometry>
                </mxCell>
            </root>
        </mxGraphModel>
    </diagram>
</mxfile>
